<svg version="1.0" xmlns="http://www.w3.org/2000/svg" viewBox="0 0 700 700"><path d="M211.5 1.1c-55 5.4-104.1 28.5-143 67.4-36.1 36-58.1 79.8-66.1 132C.6 211.8.5 221 .5 350c0 128.9.1 138.3 1.9 149.5 8 52 29.9 95.8 66.1 132 36.1 36.1 80 58.1 132 66.1 11.2 1.8 20.6 1.9 149.5 1.9 126.1 0 138.5-.1 149.1-1.8 52.1-7.9 96.3-30 132.4-66.2 36.2-36.2 58.1-80 66.1-132 1.8-11.2 1.9-20.6 1.9-149.5 0-153.3.3-145.7-7-174.6C671.2 91.7 605.1 26.5 521.4 6.6 495 .4 502.3.6 355 .4c-74-.1-138.5.2-143.5.7zm15.1 219.4c28 4.9 53 19.6 83.3 49.1l11.5 11.1-13.5 17-13.4 17-13-13.2c-19.4-19.8-34.4-30-52.5-35.7-6.6-2-9.5-2.3-23.5-2.3-14.9.1-16.6.3-24 2.9-10.8 3.7-17.4 7.7-25.3 15-14.8 13.8-22.7 31.7-25.3 57.3-3.3 32 6.2 62.1 25.3 79.9 7.9 7.3 14.5 11.3 25.3 15.1 7.5 2.6 9.1 2.8 24 2.8 15.4 0 16.3-.1 24.7-3.1 17.8-6.4 31.2-15.7 51.3-35.9 13.4-13.3 26-28.5 63.6-76.6 18.2-23.2 26.6-32.9 41.7-48.3 36.9-37.5 69.1-53.6 107.1-53.6 58.2 0 102.1 36.7 115 96.1 4.6 21.5 4.6 48.3 0 69.8-12.9 59.4-56.8 96.1-115 96.1-31.8 0-57.8-10.8-88.4-36.6-6-5.1-14.6-12.8-18.9-17.2l-7.9-8.1 13.2-16.5c7.3-9.1 13.5-16.6 13.8-16.6.3 0 6.2 5.8 13.2 12.9 18.8 19.2 34.4 29.7 52.1 35.3 6.6 2 9.5 2.3 23.5 2.3 14.9-.1 16.6-.3 24-2.9 10.8-3.7 17.4-7.7 25.3-15 19.1-17.8 28.6-47.8 25.3-79.9-2.5-25.5-10.5-43.5-25.3-57.3-7.9-7.4-14.6-11.3-25.3-15-10.5-3.5-30.2-4.5-40.8-2-19.4 4.6-36.5 15.4-57.8 36.6-16.4 16.3-22.2 23.2-51.7 61-26.9 34.5-38 47.7-53.2 63.4-37.7 38.9-70.4 55.6-108.9 55.6-39.2 0-72.7-16.8-94.1-47.1-17.9-25.5-26.7-60.7-24-96.3 4.3-56.1 33.5-97.4 80.2-113 16.1-5.4 40.7-7.1 58.4-4.1z"/></svg>
